<?xml version="1.0" encoding="utf-8"?>
<!-- Generator: Adobe Illustrator 26.0.3, SVG Export Plug-In . SVG Version: 6.00 Build 0)  -->
<svg version="1.1" id="Layer_1" xmlns="http://www.w3.org/2000/svg" xmlns:xlink="http://www.w3.org/1999/xlink" x="0px" y="0px"
	 viewBox="0 0 200 200" style="enable-background:new 0 0 200 200;" xml:space="preserve">
<style type="text/css">
	.st0{fill:none;}
	.st1{enable-background:new    ;}
</style>
<rect class="st0" width="200" height="200"/>
<g class="st1">
	<path d="M92.6,132.6H36V107c0-3.3,1.4-6.1,4.3-8.4c2.7-2.2,5.7-3.3,9.1-3.3l31.8,0.1V78.7H40.7V67.4h40.1c3.3,0,6.1,1.1,8.4,3.4
		s3.4,5,3.4,8.4v15.7c0,3.2-1.1,6-3.4,8.3s-5.1,3.4-8.3,3.4H47.4v14.7h45.2C92.6,121.3,92.6,132.6,92.6,132.6z"/>
</g>
<path d="M103.5,132.6V67.4H143c5.4,0,8.3,1.5,11.9,4.4c2.2,2.2,5.2,5.1,5.2,10.6v35.4c0,5.2-2.4,8.1-4.7,10.4
	c-2.3,2.3-6.1,4.4-10.8,4.4L103.5,132.6L103.5,132.6z M114.8,121.3h25.2c4.8,0,8.7-3.9,8.7-8.7V86.2c0-4.2-3.4-7.5-7.5-7.5h-26.4
	L114.8,121.3z"/>
</svg>
