<?xml version="1.0" encoding="utf-8"?>
<!-- Generator: Adobe Illustrator 26.0.3, SVG Export Plug-In . SVG Version: 6.00 Build 0)  -->
<svg version="1.1" id="Layer_1" xmlns="http://www.w3.org/2000/svg" xmlns:xlink="http://www.w3.org/1999/xlink" x="0px" y="0px"
	 viewBox="0 0 200 200" style="enable-background:new 0 0 200 200;" xml:space="preserve">
<style type="text/css">
	.st0{fill:none;}
	.st1{enable-background:new    ;}
</style>
<rect class="st0" width="200" height="200"/>
<g class="st1">
	<path d="M35,132.6v-11.3h45.2v-15.7H46.3V94.4h33.9V78.7H35V67.4h44.8c3.3,0,6.1,1.1,8.4,3.4s3.4,5,3.4,8.4v15.7
		c0,1.3-0.3,2.4-0.8,3.3c-0.2,0.4-1,1.2-2.4,2.6c0.8,0.6,1.8,1.4,2.9,2.5c0.2,0.3,0.3,1,0.3,2V121c0,3.2-1.1,6-3.4,8.3
		s-5.1,3.4-8.3,3.4L35,132.6L35,132.6z"/>
	<path d="M100,132.6V67.4h39.4c5.4,0,8.3,1.5,11.9,4.4c2.2,2.2,5.2,5.1,5.2,10.6v35.4c0,5.2-2.4,8.1-4.7,10.4
		c-2.3,2.3-6.1,4.4-10.8,4.4L100,132.6L100,132.6z M111.3,121.3h25.2c4.8,0,8.7-3.9,8.7-8.7V86.2c0-4.2-3.4-7.5-7.5-7.5h-26.4
		L111.3,121.3z"/>
</g>
</svg>
