<?xml version="1.0" encoding="utf-8"?>
<!-- Generator: Adobe Illustrator 26.0.3, SVG Export Plug-In . SVG Version: 6.00 Build 0)  -->
<svg version="1.1" id="Layer_1" xmlns="http://www.w3.org/2000/svg" xmlns:xlink="http://www.w3.org/1999/xlink" x="0px" y="0px"
	 viewBox="0 0 200 200" style="enable-background:new 0 0 200 200;" xml:space="preserve">
<style type="text/css">
	.st0{fill:none;stroke:#000000;stroke-width:6;stroke-linecap:round;stroke-miterlimit:10;}
	.st1{display:none;fill:none;stroke:#000000;stroke-width:6;stroke-linecap:round;stroke-miterlimit:10;}
</style>
<g>
	<path d="M56.5,116.9c7.2,0,13.1,5.9,13.1,13.1c0,7.2-5.9,13.1-13.1,13.1s-13.1-5.9-13.1-13.1C43.4,122.7,49.3,116.9,56.5,116.9
		 M56.5,110.9c-10.5,0-19.1,8.5-19.1,19.1c0,10.5,8.5,19.1,19.1,19.1c10.5,0,19.1-8.5,19.1-19.1C75.6,119.4,67,110.9,56.5,110.9
		L56.5,110.9z"/>
</g>
<g>
	<path d="M144.5,116.9c7.2,0,13.1,5.9,13.1,13.1c0,7.2-5.9,13.1-13.1,13.1s-13.1-5.9-13.1-13.1C131.4,122.7,137.3,116.9,144.5,116.9
		 M144.5,110.9c-10.5,0-19.1,8.5-19.1,19.1c0,10.5,8.5,19.1,19.1,19.1c10.5,0,19.1-8.5,19.1-19.1C163.6,119.4,155,110.9,144.5,110.9
		L144.5,110.9z"/>
</g>
<g>
	<line class="st0" x1="82.9" y1="132.9" x2="117" y2="133"/>
</g>
<line class="st0" x1="56.5" y1="96.7" x2="65.3" y2="69.3"/>
<line class="st0" x1="59.4" y1="61.5" x2="144.5" y2="61.5"/>
<line class="st1" x1="104.3" y1="115" x2="119.1" y2="115"/>
<line class="st1" x1="119.1" y1="93.5" x2="119.1" y2="115"/>
<line class="st0" x1="82.9" y1="132.9" x2="82.9" y2="115.3"/>
<line class="st0" x1="68.2" y1="105.5" x2="82.9" y2="115.3"/>
<line class="st0" x1="156.2" y1="105.5" x2="133.7" y2="105.5"/>
<line class="st0" x1="67.3" y1="105.5" x2="48.7" y2="105.5"/>
<line class="st0" x1="143.5" y1="97.7" x2="143.5" y2="69.3"/>
<line class="st0" x1="83" y1="115" x2="93" y2="107"/>
<line class="st0" x1="88" y1="100.2" x2="97" y2="112.8"/>
<line class="st0" x1="133.7" y1="105.5" x2="121" y2="115"/>
<line class="st0" x1="117" y1="133" x2="121" y2="115"/>
</svg>
