<?xml version="1.0" encoding="utf-8"?>
<!-- Generator: Adobe Illustrator 26.0.3, SVG Export Plug-In . SVG Version: 6.00 Build 0)  -->
<svg version="1.1" id="Layer_1" xmlns="http://www.w3.org/2000/svg" xmlns:xlink="http://www.w3.org/1999/xlink" x="0px" y="0px"
	 viewBox="0 0 200 200" style="enable-background:new 0 0 200 200;" xml:space="preserve">
<style type="text/css">
	.st0{fill:none;}
	.st1{enable-background:new    ;}
</style>
<rect class="st0" width="200" height="200"/>
<g class="st1">
	<path d="M94,122.7c0-1.5-0.1-2.6-0.1-3.3c0-4.3,0.6-8,1.8-11.2c0.9-2.4,2.3-4.7,4.3-7.1c1.5-1.7,4.1-4.3,7.9-7.7
		c3.8-3.4,6.3-6,7.4-8c1.1-2,1.7-4.2,1.7-6.5c0-4.3-1.7-8-5-11.3c-3.3-3.2-7.4-4.9-12.3-4.9c-4.7,0-8.6,1.5-11.7,4.4
		c-3.1,2.9-5.2,7.5-6.2,13.7l-11.3-1.3c1-8.3,4-14.7,9.1-19.2c5-4.4,11.7-6.7,19.9-6.7c8.7,0,15.7,2.4,20.9,7.1
		c5.2,4.8,7.8,10.5,7.8,17.3c0,3.9-0.9,7.5-2.7,10.8s-5.4,7.3-10.7,12c-3.6,3.2-5.9,5.5-7,7c-1.1,1.5-1.9,3.2-2.4,5.2
		c-0.5,2-0.8,5.1-0.9,9.5H94z M93.4,144.7v-12.5h12.5v12.5H93.4z"/>
</g>
</svg>
