<?xml version="1.0" encoding="utf-8"?>
<!-- Generator: Adobe Illustrator 26.0.3, SVG Export Plug-In . SVG Version: 6.00 Build 0)  -->
<svg version="1.1" id="Layer_1" xmlns="http://www.w3.org/2000/svg" xmlns:xlink="http://www.w3.org/1999/xlink" x="0px" y="0px"
	 viewBox="0 0 800 800" style="enable-background:new 0 0 800 800;" xml:space="preserve">
<style type="text/css">
	.st0{fill-rule:evenodd;clip-rule:evenodd;}
</style>
<desc>Created with Sketch.</desc>
<g id="Page-1">
	<g id="Dribbble-Light-Preview" transform="translate(-341.000000, -720.000000)">
		<g id="icons" transform="translate(56.000000, 160.000000)">
			<path id="home-_x5B__x23_1393_x5D_" class="st0" d="M827.2,1074c0,16.6,0,16.6-23.7,16.6h-23.7c-22.9,0-22.9,0-23.7-16.6v-21
				c-1.8-46.5-1.8-46.5-47.4-46.5h-47.4c-46.7,1.7-46.7,1.7-47.4,46.5v21c-1,16.6-1,16.6-23.7,16.6h-23.7c-23.7,0-23.7,0-23.7-16.6
				V904.5c0-2.8,1.3-5.5,3.5-7.4l121.8-108c9.3-8.2,24.3-8.2,33.5,0l122.3,108.4c2.2,2,3.5,4.6,3.5,7.4V1074z M874.6,893.5
				c0-5.6-2.5-10.9-6.9-14.8l-149.3-133c-18.5-16.5-48.5-16.5-67.1-0.1l-149,131.7c-4.5,4-7,9.3-7,14.9v203c0,37.7,0,37.7,47.4,37.6
				h71.1c45.6,0,45.6,0,47.4-37.6v-21c0.8-17.5-1-21,23.7-21c22.8,0,22.8,1,23.7,21v21c-0.9,37.6-0.9,37.6,47.4,37.6h71.1
				c47.4,0,47.4,0,47.4-37.6V893.5z"/>
		</g>
	</g>
</g>
</svg>
