{
    "asset" : {
        "generator" : "Khronos glTF Blender I/O v3.3.27",
        "version" : "2.0"
    },
    "scene" : 0,
    "scenes" : [
        {
            "name" : "Scene",
            "nodes" : [
                0
            ]
        }
    ],
    "nodes" : [
        {
            "mesh" : 0,
            "name" : "Text",
            "rotation" : [
                0.6907975077629089,
                0.15099263191223145,
                -0.15099261701107025,
                0.6907976269721985
            ],
            "scale" : [
                16.46367645263672,
                16.46367645263672,
                16.463680267333984
            ],
            "translation" : [
                -17.52826499938965,
                4.9895124435424805,
                9.548086166381836
            ]
        }
    ],
    "materials" : [
        {
            "doubleSided" : true,
            "name" : "Material.001",
            "pbrMetallicRoughness" : {
                "baseColorFactor" : [
                    0,
                    0,
                    0,
                    1
                ],
                "metallicFactor" : 0,
                "roughnessFactor" : 0.5
            }
        }
    ],
    "meshes" : [
        {
            "name" : "Text",
            "primitives" : [
                {
                    "attributes" : {
                        "POSITION" : 0,
                        "NORMAL" : 1,
                        "TEXCOORD_0" : 2
                    },
                    "indices" : 3,
                    "material" : 0
                }
            ]
        }
    ],
    "accessors" : [
        {
            "bufferView" : 0,
            "componentType" : 5126,
            "count" : 6506,
            "max" : [
                2.7458555698394775,
                0.1599999964237213,
                0.4145491123199463
            ],
            "min" : [
                -3.049499988555908,
                -0.1599999964237213,
                -0.3917611539363861
            ],
            "type" : "VEC3"
        },
        {
            "bufferView" : 1,
            "componentType" : 5126,
            "count" : 6506,
            "type" : "VEC3"
        },
        {
            "bufferView" : 2,
            "componentType" : 5126,
            "count" : 6506,
            "type" : "VEC2"
        },
        {
            "bufferView" : 3,
            "componentType" : 5123,
            "count" : 12180,
            "type" : "SCALAR"
        }
    ],
    "bufferViews" : [
        {
            "buffer" : 0,
            "byteLength" : 78072,
            "byteOffset" : 0,
            "target" : 34962
        },
        {
            "buffer" : 0,
            "byteLength" : 78072,
            "byteOffset" : 78072,
            "target" : 34962
        },
        {
            "buffer" : 0,
            "byteLength" : 52048,
            "byteOffset" : 156144,
            "target" : 34962
        },
        {
            "buffer" : 0,
            "byteLength" : 24360,
            "byteOffset" : 208192,
            "target" : 34963
        }
    ],
    "buffers" : [
        {
            "byteLength" : 232552,
            "uri" : "data:application/octet-stream;base64,"
        }
    ]
}
