<svg xmlns="http://www.w3.org/2000/svg" viewBox="0 0 437.10595 214.17207"><defs><style>.cls-1{fill:#00da48;stroke:#39b802;stroke-miterlimit:10;stroke-width:4px;}</style></defs><g id="Layer_2" data-name="Layer 2"><g id="Layer_1-2" data-name="Layer 1"><path id="hole1.1" class="cls-1" d="M26.82442,2.224S17.50679.5299,9.88327,6.4593-1.12847,23.40044,5.648,27.63573,91.20076,60.671,91.20076,60.671s6.77645,0,10.16468,10.16468S108.989,88.62384,114.91836,91.165s33.88228,17.7882,37.27051,20.32937,15.247,22.87055,34.72934,27.95289,39.81168,2.54117,49.12931,5.08234,22.87055,4.23529,26.25877,17.7882,38.96463,24.56466,38.96463,24.56466,42.35286,18.63525,55.90577,18.63525S361.412,184.3413,361.412,184.3413L344.47083,165.706s-25.41171-5.9294-40.65874-16.94114-23.7176-33.88229-40.65874-34.72935-62.68223-10.3887-75.38808-10.27669S156.42415,92.01207,155.5771,85.23561s.847-40.65874-18.63526-49.12931S108.989,18.3181,84.4243,12.3887,26.82442,2.224,26.82442,2.224Z"/><path id="hole1.2" class="cls-1" d="M335.15321,153.00018s20.64613,4.23529,29.38185,15.247,11.27689,32.18817,25.67686,37.27051,22.87054,10.16469,33.88228,3.38823S435.106,182.58613,435.106,182.58613s-2.54118-23.65655-14.4-29.58595-27.10582,0-27.10582,0a125.71224,125.71224,0,0,1-38.11757-9.31763c-20.32937-8.47057-25.41172-5.9294-25.41172-5.9294S315.88061,145.84759,335.15321,153.00018Z"/></g></g></svg>